<?xml version="1.0" encoding="utf-8"?>
<!-- Generator: Adobe Illustrator 27.1.1, SVG Export Plug-In . SVG Version: 6.00 Build 0)  -->
<svg version="1.1" id="Livello_1" xmlns="http://www.w3.org/2000/svg" xmlns:xlink="http://www.w3.org/1999/xlink" x="0px" y="0px"
	 viewBox="0 0 1785.09 698.86" style="enable-background:new 0 0 1785.09 698.86;" xml:space="preserve">
<style type="text/css">
	.st0{fill:#E42320;}
</style>
<g>
	<g>
		<g>
			<g>
				<path d="M345.88,25.04c-41.89,8.75-77.53,22.63-100.87,33.2c-18.38,8.32-33.04,23.1-41.21,41.55l-73.54,166.23
					c-2.89,6.53-12.64,4.47-12.64-2.67v-96.46c0-17.34-19.73-27.29-33.66-16.98c-21.75,16.11-49.35,37.24-67.82,53.86
					C5.85,213.04,0,226.25,0,240.09l0,320.89c0,14.85,6,29.04,16.6,39.44c13.63,13.38,35.75,31.71,66.78,47.1
					c15.76,7.81,34.24-3.73,34.24-21.32v-82.73c0-7.2,1.92-14.28,5.57-20.49l16.95-28.85c7.71-13.12,26.95-12.29,33.5,1.44
					l86.22,180.74c6.47,13.57,20.1,22.32,35.14,22.45c24.56,0.22,49.12-0.03,73.65-0.76c18.47-0.55,30.32-19.87,22.52-36.62
					L245.37,348.4c-5.16-11.08-5.15-23.89,0.03-34.96L367.57,52.47C374.39,37.89,361.64,21.75,345.88,25.04z"/>
			</g>
			<g>
				<path d="M492.68,690.27c17.35-1.66,34.68-3.55,51.99-5.69c16.87-2.08,29.55-16.38,29.55-33.38V34.24
					c0-19.27-16.18-34.63-35.42-33.57c-19.45,1.07-36.89,2.37-52.18,3.73c-17.36,1.54-30.68,16.06-30.68,33.49l0,618.9
					C455.93,676.59,472.97,692.15,492.68,690.27z"/>
			</g>
			<g>
				<path d="M812.37,433.13c30.4-10.12,60.58-20.66,91.32-30.22c28.06-8.73,57.25-15.3,86.85-20.77c6.45-2.1,10.68-4.93,14.35-11.56
					c1.45-3.45,2.82-6.97,4.12-10.55c8.6-23.82-9.32-48.92-34.65-48.92h-47.76c-13.95,0-26.83,7.85-32.9,20.41
					c-3.64,7.54-8.1,14.05-13.39,19.55c-9.58,9.98-23.29,14.97-41.13,14.97c-20.49,0-36.02-7.27-46.59-21.84
					c-6.39-9.38-11.01-22.46-13.87-39.25c-2.87-16.78-4.29-45.94-4.29-87.49c0-31.21,0.71-54.86,2.15-70.94
					c1.43-16.08,3.42-28.05,5.94-35.91s5.9-14.61,10.08-20.24c4.84-6.34,11.29-11.5,19.32-15.49c8.05-3.99,17.14-5.99,27.27-5.99
					c18.28,0,32.1,4.99,41.46,14.97c5.12,5.46,9.46,11.91,13.03,19.36c6.06,12.65,18.96,20.6,32.99,20.6h47.86
					c25.52,0,43.15-25.35,34.5-49.36c-3.04-8.43-6.51-16.45-10.41-24.05c-3.19-6.23-6.6-12.13-10.22-17.71
					c-6.04-9.31-15.93-15.45-26.96-16.64C878.55,7.1,802.55,2.26,735.21,0.02c-10.19-0.34-20.12,3.53-27.24,10.83
					c-0.99,1.02-1.98,2.05-2.96,3.1c-21.13,22.53-34.55,48.18-40.27,76.94c-5.72,28.76-8.58,65.19-8.58,109.32v34.5
					c0,44.13,2.87,80.51,8.58,109.15c5.72,28.63,19.14,54.22,40.27,76.75c8.01,8.64,16.46,16.31,25.36,23.01
					c9.69,7.29,22.32,9.41,33.82,5.58c7.61-2.54,15.22-5.07,22.83-7.61"/>
			</g>
			<g>
				<path d="M1083.01,50.37v298.66c0,10.82,9.15,19.38,19.95,18.67c12.23-0.81,24.53-1.36,36.88-1.62
					c14.74-0.31,29.43-0.23,44.08,0.18c9.14,0.26,16.71-7.04,16.71-16.18v-31.55c0-6.05,2.09-11.92,5.93-16.6l25.78-31.5
					c4.13-5.05,12.12-4.04,14.87,1.88l42.93,92.39c2.9,6.25,8.83,10.56,15.67,11.4l92.93,11.41c15.87,1.95,27.47-14.61,20.23-28.86
					l-92.3-181.51c-3.87-7.61-2.61-16.83,3.16-23.12l83.23-90.72c8.6-9.37,1.96-24.5-10.77-24.5c-27.23,0-60.53-0.04-95.09-0.16
					c-10.03-0.03-19.61,4.18-26.35,11.6l-80.21,88.19V50.24c0-6.83-5.5-12.4-12.34-12.49c-5.39-0.07-10.64-0.14-15.73-0.22
					l-70.78-4.72C1091.62,32.13,1083.01,40.19,1083.01,50.37z"/>
			</g>
			<g>
				<g>
					<path d="M630.99,552.14l21.38-6.25c2.62-0.76,5.43,0.19,7.05,2.39l57.39,78.14c2.66,3.63,0.91,8.8-3.41,10.06l-18.35,5.36
						c-2.76,0.81-5.72-0.3-7.28-2.72l-3.13-4.88c-1.55-2.42-4.52-3.53-7.28-2.72l-22.53,6.58c-2.72,0.79-4.61,3.26-4.66,6.1
						l-0.12,6.06c-0.06,2.83-1.94,5.3-4.67,6.1l-17.42,5.09c-4.33,1.27-8.6-2.17-8.29-6.67l6.66-96.85
						C626.52,555.2,628.38,552.9,630.99,552.14z M661.32,612.97c4.15-1.21,5.97-6.07,3.65-9.71l-13.3-20.88l-0.28,0.08l-0.49,24.77
						c-0.09,4.38,4.1,7.58,8.3,6.35L661.32,612.97z"/>
				</g>
				<g>
					<path d="M819.44,590.73l-23.88,10.91c-2.61,1.19-5.69,0.53-7.58-1.63l-62.56-71.56c-2.86-3.27-1.76-8.36,2.19-10.17l17-7.76
						c2.67-1.22,5.82-0.5,7.69,1.76l38.56,46.49l0.27-0.12l-10.14-59.45c-0.49-2.9,1.02-5.77,3.7-6.99l17.4-7.95
						c3.98-1.82,8.58,0.75,9.13,5.09l11.97,94.67C823.53,586.83,822.02,589.55,819.44,590.73z"/>
				</g>
				<g>
					<path d="M869.82,453.17l69.78-21.99c3.42-1.08,7.06,0.82,8.13,4.24l4.12,13.07c1.08,3.42-0.82,7.06-4.24,8.13l-39.2,12.36
						c-3.42,1.08-5.31,4.72-4.24,8.13l0,0c1.08,3.42,4.72,5.31,8.13,4.24l34.47-10.87c3.42-1.08,7.06,0.82,8.13,4.24l3.55,11.26
						c1.08,3.42-0.82,7.06-4.24,8.13l-34.47,10.87c-3.42,1.08-5.31,4.72-4.24,8.13l0,0c1.08,3.42,4.72,5.31,8.13,4.24l40.73-12.84
						c3.42-1.08,7.06,0.82,8.13,4.24l4.12,13.07c1.08,3.42-0.82,7.06-4.24,8.13l-71.3,22.48c-3.42,1.08-7.06-0.82-8.13-4.24
						l-27.38-86.87C864.51,457.89,866.4,454.25,869.82,453.17z"/>
				</g>
				<g>
					<path d="M1028.77,413.28l22.37-1.94c2.37-0.21,4.66,0.9,5.97,2.88l32.89,49.63l0.29-0.03l-4.26-49.01
						c-0.31-3.57,2.33-6.71,5.9-7.02l17.28-1.5c3.57-0.31,6.71,2.33,7.02,5.9l7.88,90.75c0.31,3.57-2.33,6.71-5.9,7.02l-20.83,1.81
						c-2.34,0.2-4.6-0.87-5.92-2.81l-34.58-50.73l-0.29,0.03l4.36,50.17c0.31,3.57-2.33,6.71-5.9,7.02l-17.28,1.5
						c-3.57,0.31-6.71-2.33-7.02-5.9l-7.89-90.75C1022.56,416.73,1025.2,413.59,1028.77,413.28z"/>
				</g>
				<g>
					<path d="M1278.94,486.09c-3.91,28.59-21.23,40.2-52.72,35.9s-45.2-20.15-41.3-48.75l7.76-56.83c0.48-3.55,3.75-6.03,7.3-5.55
						l18.92,2.59c3.55,0.48,6.03,3.75,5.55,7.3l-6.8,49.75c-1.44,10.54-3.24,23.68,12.22,25.79c15.02,2.05,16.82-11.09,18.26-21.63
						l6.8-49.75c0.48-3.55,3.75-6.03,7.3-5.55l18.92,2.59c3.55,0.48,6.03,3.75,5.55,7.3L1278.94,486.09z"/>
				</g>
				<g>
					<path d="M1355.58,433.84l72.15,12.17c3.53,0.6,5.91,3.94,5.32,7.47l-2.28,13.51c-0.6,3.53-3.94,5.91-7.47,5.32l-40.53-6.84
						c-3.53-0.6-6.88,1.78-7.47,5.32l0,0c-0.6,3.53,1.78,6.88,5.32,7.47l35.65,6.01c3.53,0.6,5.91,3.94,5.32,7.47l-1.96,11.64
						c-0.6,3.53-3.94,5.91-7.47,5.32l-35.65-6.01c-3.53-0.6-6.88,1.78-7.47,5.32l0,0c-0.6,3.53,1.78,6.88,5.32,7.47l42.11,7.1
						c3.53,0.6,5.91,3.94,5.32,7.47l-2.28,13.51c-0.6,3.53-3.94,5.91-7.47,5.32l-73.73-12.44c-3.53-0.6-5.91-3.94-5.32-7.47
						l15.15-89.83C1348.7,435.62,1352.05,433.24,1355.58,433.84z"/>
				</g>
			</g>
			<g>
				<path d="M1448.92,550.93c-2.21,4.67,0.45,10.19,5.48,11.37l0,0c2.75,0.52,5.25,0.98,7.47,1.38c1.69,0.3,3.38,0.58,5.07,0.85
					c0.55,0.09,1.1,0.17,1.65,0.25c1.15,0.18,2.3,0.35,3.45,0.51c0.65,0.09,1.3,0.18,1.94,0.26c1.06,0.14,2.13,0.28,3.2,0.41
					c0.67,0.08,1.34,0.16,2.01,0.24c1.06,0.12,2.13,0.24,3.19,0.35c0.66,0.07,1.31,0.14,1.97,0.21c0.83,0.08,1.66,0.16,2.49,0.23
					c86.23,9.95,275.82,12.67,298.25-150.86c-0.29-0.27-0.58-0.51-0.88-0.77c1.47-10.25,1.09-20.78-1.16-31.06
					c-5.62-25.67-14.69-47.5-27.25-65.48c-20.93-30.42-52.54-50.19-94.82-59.35l-58.14-11.77c-14.54-2.94-25.56-9.97-33.04-21.09
					c-6.39-9.47-9.58-20.59-9.58-33.35v0c0-20.75,15.31-38.42,35.88-41.15c47.76-6.34,70.42,22.82,82.45,38.77
					c3.85,5.11,11.56,4.91,15.14-0.39l16.16-21.32c0.01,0.02,0.03,0.04,0.04,0.06l13.61-20.21c6.02-8.94,3.8-21.05-5-27.27
					l-9.08-6.42c-66.72-48.06-141.57-62.63-186.86-66.89c-24.01-2.26-46.59,11.75-55.34,34.22v0c-14.21,34.17-21.31,73-21.31,116.47
					c-0.08,1.97-0.06,4.33,0.05,6.99c0.13,8.83,0.46,16.21,0.93,22.59c1.95,26.48,10.7,52.11,26.17,73.69
					c0.57,0.79,1.14,1.57,1.71,2.33c23.88,31.9,58.27,44.56,100.99,53.4l39.1,8.65l0,0l0,0l8.85,1.96c0.64,0.13,1.29,0.25,1.95,0.37
					c0.01,0,0.01,0,0.02,0c14.97,4.07,40.38,14.36,42.3,37.65c0.02,0.37,0.03,0.73,0.05,1.09c0.03,0.69,0.07,1.38,0.06,2.09
					c0.58,78.43-120.88,49.6-158.41,38.82c-6.18-1.78-12.73,1.18-15.49,6.99L1448.92,550.93z"/>
			</g>
		</g>
		<g>
			<path class="st0" d="M860,164.41c0.27,0.18,0.5,0.32,0.68,0.41l0.27,0.27c0,0.09-0.86,1.72-2.59,4.9
				c-1.72,3.09-4.31,7.71-7.76,13.88c-2.99,5.44-5.63,10.43-7.89,14.97c-2.27,4.45-4.4,9.03-6.4,13.74c-1,2.54-2.04,5.17-3.13,7.89
				c-1.09,2.72-2.18,5.67-3.27,8.85c-1.18,3.27-2.5,7.03-3.95,11.3c-1.36,4.17-2.59,8.12-3.67,11.84c-0.64,1.91-1.18,3.67-1.63,5.31
				c-0.46,1.63-0.86,2.99-1.22,4.08c-0.18,0.91-0.5,2.09-0.95,3.54c-0.36,1.54-0.77,2.9-1.23,4.08c-0.36,1.27-0.82,2.81-1.36,4.63
				c-0.54,1.82-1.04,3.4-1.5,4.76c-0.46,1.45-0.95,2.81-1.5,4.08c-0.46,1.18-0.86,1.99-1.22,2.45c-0.73,0.82-1.23,1.27-1.5,1.36
				h-0.14c-0.27,0-0.73-0.18-1.36-0.54c-0.27-0.18-0.68-0.32-1.22-0.41c-0.64-0.09-1.27-0.14-1.91-0.14c-1,0-1.68-0.09-2.04-0.27
				c-0.27-0.18-0.64-0.73-1.09-1.63c-0.36-0.73-0.59-1.82-0.68-3.27c-0.18-1.36-0.27-5.08-0.27-11.16c0-2.63,0-5.8,0-9.53
				c-0.09-3.72-0.14-8.17-0.14-13.34c0-4.72,0.04-8.85,0.14-12.38c0-3.63,0-6.8,0-9.53c0-2.45,0-4.58,0-6.4
				c0.09-1.91,0.18-3.58,0.27-5.04c0.09-3.27,0.32-5.85,0.68-7.76c0.36-1.81,0.86-4.08,1.5-6.8c0.63-2.45,1.31-4.49,2.04-6.12
				c0.73-1.63,1.31-2.45,1.77-2.45c0.18,0,0.32,0.23,0.41,0.68c0.09,0.46,0.18,1,0.27,1.63c0,0.64,0.04,1.32,0.14,2.04
				c0.18,0.82,0.32,1.41,0.41,1.77c0.63,1.54,1.13,4.81,1.5,9.8c0.36,5.08,0.54,11.11,0.54,18.1c0,7.35,0.09,13.29,0.27,17.83
				c0.18,4.54,0.41,6.8,0.68,6.8c0.09,0,0.36-0.59,0.82-1.77c0.36-1.18,0.82-2.59,1.36-4.22c1.45-4.72,3.36-10.3,5.72-16.74
				c2.27-6.35,4.22-11.48,5.85-15.38c4.44-10.61,8.57-18.96,12.38-25.04c3.81-6.08,8.3-11.48,13.47-16.19
				c2.09-1.81,3.72-3.13,4.9-3.95c1.09-0.73,1.95-1.09,2.59-1.09c0.18,0,0.36,0,0.54,0C859.68,164.36,859.82,164.41,860,164.41z"/>
			<path class="st0" d="M856.33,216.67c0.09,0.27,0.14,0.82,0.14,1.63v0.14c0,1.27-0.18,3.45-0.54,6.53
				c-0.46,3.08-0.95,6.31-1.5,9.66c-0.27,1.82-0.59,3.58-0.95,5.31c-0.27,1.72-0.59,3.31-0.95,4.76c-0.46,2.18-1.04,5.04-1.77,8.57
				c-0.82,3.63-1.54,6.9-2.18,9.8c-0.54,2.9-1.18,5.67-1.91,8.3c-0.73,2.72-1.27,4.54-1.63,5.44c-0.73,1.82-1.59,3.49-2.59,5.04
				c-0.91,1.45-1.54,2.18-1.91,2.18c-0.09,0-0.27-0.14-0.54-0.41c-0.27-0.36-0.5-0.77-0.68-1.22c-1.09-2.72-1.63-5.9-1.63-9.53
				c0-0.63,0-1.31,0-2.04c0.27-4.54,1.41-11.3,3.4-20.28c0.73-3.27,1.36-6.12,1.9-8.57c0.54-2.36,1.09-4.44,1.63-6.26
				c0.91-3.36,1.86-6.08,2.86-8.17c1-2.09,2.36-4.44,4.08-7.08c1.09-1.63,1.91-2.77,2.45-3.4c0.54-0.63,1-0.95,1.36-0.95h0.14
				C855.97,216.21,856.24,216.39,856.33,216.67z M867.9,175.29c-0.09,2.63-0.23,4.54-0.41,5.72c-0.18,1.09-0.59,2.31-1.22,3.67
				c-0.46,1.27-1.14,2.9-2.04,4.9c-1,1.9-2,3.9-2.99,5.99c-1.45,3.09-2.86,5.9-4.22,8.44c-1.27,2.45-2,3.67-2.18,3.67
				c-0.09,0-0.27-0.14-0.54-0.41c-0.27-0.27-0.54-0.59-0.82-0.95c-0.54-0.91-0.82-2.4-0.82-4.49c0-1.54,0.14-3.4,0.41-5.58
				c0.63-5.26,1.9-10.3,3.81-15.11c0.63-1.81,1.27-3.17,1.91-4.08c0.63-0.82,1.86-2.13,3.67-3.95c1.09-1.18,2.13-2.13,3.13-2.86
				c0.91-0.82,1.5-1.23,1.77-1.23c0.36,0,0.59,0.32,0.68,0.95c0,0.27,0,0.68,0,1.22C868.03,172.12,867.99,173.48,867.9,175.29z"/>
			<path class="st0" d="M907.91,137.33c0.73,0.18,1,0.95,0.82,2.31c-0.18,1.45-0.82,3.67-1.91,6.67c-0.64,1.63-1.18,3.18-1.63,4.63
				c-0.46,1.54-0.77,2.54-0.95,2.99c-0.09,0.46-0.27,1.09-0.54,1.91c-0.27,0.91-0.59,1.72-0.95,2.45c-0.27,0.73-0.64,1.68-1.09,2.86
				c-0.46,1.18-0.82,2.27-1.09,3.27c-0.27,0.91-0.73,2.27-1.36,4.08c-0.64,1.82-1.27,3.49-1.91,5.04c-1.27,2.9-2.22,5.4-2.86,7.48
				c-0.64,2.09-0.82,3.27-0.54,3.54c0.09,0.09,0.73,0,1.91-0.27c1.18-0.36,2.54-0.77,4.08-1.22c3.54-1.09,6.85-1.77,9.93-2.04
				c2.99-0.27,4.9-0.09,5.72,0.54c0.45,0.36,0.68,0.64,0.68,0.82v0.14c-0.09,0.18-0.64,0.73-1.63,1.63
				c-1.27,1.09-3.27,2.45-5.99,4.08c-2.81,1.54-5.31,2.72-7.48,3.54c-2.09,0.82-4.4,1.82-6.94,2.99c-2.54,1.27-3.95,2.09-4.22,2.45
				c-0.18,0.18-0.36,0.54-0.54,1.09c-0.18,0.45-0.36,1-0.54,1.63c-0.09,0.64-0.41,1.86-0.95,3.67c-0.54,1.82-1.14,3.67-1.77,5.58
				c-0.18,0.82-0.54,2.22-1.09,4.22c-0.54,2-1.09,4.22-1.63,6.67c-0.91,3.63-1.82,7.21-2.72,10.75c-0.91,3.54-1.45,5.67-1.63,6.4
				c-0.36,1.36-0.82,2.9-1.36,4.63c-0.46,1.72-0.86,3.13-1.22,4.22c-1.18,3.72-2.27,8.03-3.27,12.93c-1.09,4.9-1.95,9.53-2.59,13.88
				c-0.36,2.36-0.64,4.54-0.82,6.53c-0.27,1.99-0.41,3.72-0.41,5.17c0,2.72,0.54,4.44,1.63,5.17c1,0.82,2.63,0.73,4.9-0.27
				c1.72-0.82,2.67-0.95,2.86-0.41c0.18,0.63-0.46,1.86-1.91,3.67c-1.45,1.91-3.31,3.31-5.58,4.22c-1.36,0.54-2.63,0.82-3.81,0.82
				c-0.64,0-1.27-0.14-1.91-0.41c-0.73-0.27-1.59-0.91-2.59-1.91c-0.91-1-1.63-2.13-2.18-3.4c-0.46-1-0.77-1.95-0.95-2.86
				c-0.09-0.91-0.14-2.45-0.14-4.63c0-2.54,0.18-5.85,0.54-9.93c0.36-4.17,0.82-7.48,1.36-9.93c0.45-2.36,1.27-6.08,2.45-11.16
				c1.27-4.99,2.31-8.85,3.13-11.57c0.45-1.45,1.09-3.67,1.91-6.67c0.82-2.99,1.68-6.26,2.59-9.8c1.36-5.17,2.63-10.11,3.81-14.83
				c1.18-4.72,1.81-7.26,1.91-7.62c0.18-0.73,0.04-1.09-0.41-1.09c-0.46-0.09-1.36,0.14-2.72,0.68l-4.76,1.22
				c-3.18,0.73-5.31,0.86-6.4,0.41c-1.36-0.54-1.32-1.77,0.14-3.67c1.54-1.81,3.31-3.31,5.31-4.49c1-0.54,2.18-1.13,3.54-1.77
				c1.36-0.63,2.54-1.13,3.54-1.5c1-0.36,1.95-0.77,2.86-1.22c0.91-0.45,1.5-0.86,1.77-1.22c0.36-0.27,0.82-1.04,1.36-2.31
				c0.54-1.27,1.18-3.04,1.91-5.31c0.54-1.81,1.22-3.76,2.04-5.85c0.73-2.18,1.36-3.9,1.91-5.17c0.54-1.18,1.22-2.72,2.04-4.63
				c0.82-1.91,1.5-3.54,2.04-4.9c2.09-5.26,4.17-9.57,6.26-12.93c2-3.45,4.67-7.03,8.03-10.75c0.27-0.27,0.59-0.54,0.95-0.82
				c0.36-0.18,0.63-0.32,0.82-0.41h0.14H907.91z"/>
			<path class="st0" d="M938.53,211.22c0.27,0.09,0.41,0.73,0.41,1.91c0,0.09,0,0.23,0,0.41c0,1.45-0.27,4.9-0.82,10.34
				c-0.27,3.45-0.64,7.26-1.09,11.43c-0.46,4.27-0.82,7.67-1.09,10.21c-0.36,2.54-0.77,5.63-1.22,9.25
				c-0.54,3.63-0.95,6.71-1.22,9.25c-0.46,3.08-0.82,5.58-1.09,7.48c-0.36,1.82-0.68,3.04-0.95,3.67c-1.27,2.63-2.36,4.72-3.27,6.26
				c-0.82,1.45-1.36,2.22-1.63,2.31h-0.13c-0.18,0-0.41-0.27-0.68-0.82c-0.36-0.64-0.68-1.41-0.95-2.31c-1-2.63-1.54-5.12-1.63-7.48
				c0-2.45,0.27-6.89,0.82-13.34c0.36-3.27,0.63-6.08,0.82-8.44c0.09-2.45,0.09-3.72,0-3.81c-0.09-0.09-0.41,0.18-0.95,0.82
				c-0.54,0.54-1.18,1.32-1.91,2.31c-2.09,2.72-4.45,5.44-7.08,8.17c-2.72,2.63-4.81,4.4-6.26,5.31c-2.63,1.63-5.13,2.36-7.48,2.18
				c-2.27-0.09-4.08-1.04-5.44-2.86c-0.82-1.18-1.32-2.49-1.5-3.95c0-0.18,0-0.41,0-0.68c0-1.36,0.23-3.17,0.68-5.44
				c0.82-3.72,2.4-7.57,4.76-11.57c2.27-3.99,4.85-7.17,7.76-9.53c2.45-2.09,5.26-3.76,8.44-5.04c3.08-1.27,5.76-1.81,8.03-1.63
				c1.36,0.09,2.18,0.36,2.45,0.82c0.27,0.36-0.05,0.86-0.95,1.5c-1.81,1.27-4.31,3.58-7.48,6.94c-3.27,3.36-5.63,6.03-7.08,8.03
				c-1.82,2.72-3.27,5.17-4.36,7.35c-1.09,2.18-1.45,3.4-1.09,3.67c0.36,0.27,1.31-0.36,2.86-1.9c1.63-1.45,3.95-3.86,6.94-7.21
				c0.72-0.91,1.54-1.91,2.45-2.99c0.91-1.18,1.81-2.36,2.72-3.54c1.72-2.27,3.27-4.4,4.63-6.4c1.36-1.99,2.04-3.17,2.04-3.54
				c0-0.18,0.09-0.41,0.27-0.68c0.18-0.27,0.36-0.5,0.54-0.68c0.18-0.18,0.73-1,1.63-2.45c0.82-1.36,1.68-2.9,2.58-4.63
				c1.91-3.27,3.31-5.53,4.22-6.8c0.82-1.27,1.5-1.91,2.04-1.91h0.13H938.53z"/>
			<path class="st0" d="M997.45,209.18c0.45,1.18,0.68,2.59,0.68,4.22c0,0.54-0.05,1.14-0.14,1.77c-0.18,2.45-1.14,6.26-2.86,11.43
				c-1,2.81-2.22,6.12-3.67,9.93c-1.36,3.81-3.04,8.3-5.04,13.47c-1.63,4.08-3.18,8.12-4.63,12.11c-1.54,3.9-2.54,6.58-2.99,8.03
				c-0.54,1.36-1.04,2.72-1.5,4.08c-0.54,1.27-0.91,2.13-1.09,2.59c-0.36,1-1.09,1.86-2.18,2.59c-1.09,0.73-2.04,1-2.86,0.82
				c-0.73,0-1.5-0.54-2.31-1.63c-0.73-1.09-1.09-2.09-1.09-2.99c0-1.45,0.95-4.85,2.86-10.21c1.91-5.44,4.85-12.93,8.85-22.45
				c2.36-5.62,4.31-10.61,5.85-14.97c1.63-4.26,2.45-6.71,2.45-7.35c0-0.27-0.05-0.5-0.14-0.68c-0.09-0.18-0.23-0.27-0.41-0.27
				c-0.18,0-0.91,0.59-2.18,1.77c-1.27,1.18-2.77,2.59-4.49,4.22c-4.45,4.45-8.8,9.66-13.06,15.65
				c-4.35,5.99-8.08,12.07-11.16,18.24c-0.54,1.09-1.18,2.27-1.91,3.54c-0.64,1.27-1.18,2.22-1.63,2.86
				c-0.91,1.54-2.31,4.27-4.22,8.17c-1.82,3.99-3.27,7.39-4.35,10.21c-1,2.63-1.68,4.17-2.04,4.63c-0.27,0.27-0.59,0.41-0.95,0.41
				c-0.27,0-0.64-0.14-1.09-0.41c-0.36-0.18-0.86-0.41-1.5-0.68c-0.64-0.18-1.22-0.36-1.77-0.54c-0.82-0.18-1.36-0.41-1.63-0.68
				c-0.18-0.18-0.27-0.59-0.27-1.23c0-0.36,0.05-0.91,0.14-1.63c0.18-0.73,0.36-1.45,0.54-2.18c0.46-1.63,0.95-3.81,1.5-6.53
				c0.54-2.81,1.04-5.9,1.5-9.25c0.18-1.63,0.5-3.81,0.95-6.53c0.45-2.63,0.95-5.44,1.5-8.44c0.82-4.44,1.63-8.75,2.45-12.93
				c0.91-4.26,1.59-7.17,2.04-8.71c0.54-2.18,1.09-3.67,1.63-4.49c0.45-0.91,0.86-1.18,1.22-0.82c0.36,0.36,0.63,1.86,0.82,4.49
				c0.18,2.63,0.23,5.54,0.14,8.71c0,1.63-0.05,3.27-0.14,4.9c-0.09,1.63-0.23,3.13-0.41,4.49c-0.46,3.18-0.68,5.49-0.68,6.94
				c-0.09,1.45,0.04,2.04,0.41,1.77c0.18,0,0.5-0.36,0.95-1.09c0.36-0.73,0.77-1.54,1.22-2.45c2.36-4.54,5.58-9.71,9.66-15.51
				c3.99-5.72,7.67-10.34,11.02-13.88c3.45-3.72,7.39-7.35,11.84-10.89c4.35-3.54,7.21-5.44,8.57-5.72c0.18,0,0.32,0,0.41,0
				c0.09,0,0.23,0,0.41,0h0.14c0.91,0,1.81,0.32,2.72,0.95C996.36,207.55,997,208.27,997.45,209.18z"/>
			<path class="st0" d="M1044.26,137.33c0.73,0.18,1,0.95,0.82,2.31c-0.18,1.45-0.82,3.67-1.91,6.67c-0.64,1.63-1.18,3.18-1.63,4.63
				c-0.46,1.54-0.77,2.54-0.95,2.99c-0.09,0.46-0.27,1.09-0.54,1.91c-0.27,0.91-0.59,1.72-0.95,2.45c-0.27,0.73-0.64,1.68-1.09,2.86
				c-0.46,1.18-0.82,2.27-1.09,3.27c-0.27,0.91-0.73,2.27-1.36,4.08c-0.64,1.82-1.27,3.49-1.91,5.04c-1.27,2.9-2.22,5.4-2.86,7.48
				c-0.64,2.09-0.82,3.27-0.54,3.54c0.09,0.09,0.73,0,1.91-0.27c1.18-0.36,2.54-0.77,4.08-1.22c3.54-1.09,6.85-1.77,9.93-2.04
				c2.99-0.27,4.9-0.09,5.72,0.54c0.45,0.36,0.68,0.64,0.68,0.82v0.14c-0.09,0.18-0.64,0.73-1.63,1.63
				c-1.27,1.09-3.27,2.45-5.99,4.08c-2.81,1.54-5.31,2.72-7.48,3.54c-2.09,0.82-4.4,1.82-6.94,2.99c-2.54,1.27-3.95,2.09-4.22,2.45
				c-0.18,0.18-0.36,0.54-0.54,1.09c-0.18,0.45-0.36,1-0.54,1.63c-0.09,0.64-0.41,1.86-0.95,3.67c-0.54,1.82-1.14,3.67-1.77,5.58
				c-0.18,0.82-0.54,2.22-1.09,4.22c-0.54,2-1.09,4.22-1.63,6.67c-0.91,3.63-1.82,7.21-2.72,10.75c-0.91,3.54-1.45,5.67-1.63,6.4
				c-0.36,1.36-0.82,2.9-1.36,4.63c-0.46,1.72-0.86,3.13-1.22,4.22c-1.18,3.72-2.27,8.03-3.27,12.93c-1.09,4.9-1.95,9.53-2.59,13.88
				c-0.36,2.36-0.64,4.54-0.82,6.53c-0.27,1.99-0.41,3.72-0.41,5.17c0,2.72,0.54,4.44,1.63,5.17c1,0.82,2.63,0.73,4.9-0.27
				c1.72-0.82,2.67-0.95,2.86-0.41c0.18,0.63-0.46,1.86-1.91,3.67c-1.45,1.91-3.31,3.31-5.58,4.22c-1.36,0.54-2.63,0.82-3.81,0.82
				c-0.64,0-1.27-0.14-1.91-0.41c-0.73-0.27-1.59-0.91-2.59-1.91c-0.91-1-1.63-2.13-2.18-3.4c-0.46-1-0.77-1.95-0.95-2.86
				c-0.09-0.91-0.14-2.45-0.14-4.63c0-2.54,0.18-5.85,0.54-9.93c0.36-4.17,0.82-7.48,1.36-9.93c0.45-2.36,1.27-6.08,2.45-11.16
				c1.27-4.99,2.31-8.85,3.13-11.57c0.45-1.45,1.09-3.67,1.91-6.67c0.82-2.99,1.68-6.26,2.59-9.8c1.36-5.17,2.63-10.11,3.81-14.83
				c1.18-4.72,1.81-7.26,1.9-7.62c0.18-0.73,0.04-1.09-0.41-1.09c-0.46-0.09-1.36,0.14-2.72,0.68l-4.76,1.22
				c-3.18,0.73-5.31,0.86-6.4,0.41c-1.36-0.54-1.32-1.77,0.14-3.67c1.54-1.81,3.31-3.31,5.31-4.49c1-0.54,2.18-1.13,3.54-1.77
				c1.36-0.63,2.54-1.13,3.54-1.5c1-0.36,1.95-0.77,2.86-1.22c0.91-0.45,1.5-0.86,1.77-1.22c0.36-0.27,0.82-1.04,1.36-2.31
				c0.54-1.27,1.18-3.04,1.91-5.31c0.54-1.81,1.22-3.76,2.04-5.85c0.72-2.18,1.36-3.9,1.9-5.17c0.54-1.18,1.23-2.72,2.04-4.63
				s1.5-3.54,2.04-4.9c2.09-5.26,4.17-9.57,6.26-12.93c2-3.45,4.67-7.03,8.03-10.75c0.27-0.27,0.59-0.54,0.95-0.82
				c0.36-0.18,0.63-0.32,0.82-0.41h0.14H1044.26z"/>
		</g>
	</g>
</g>
<g>
	<g>
		<path d="M3365.88-97.58c-41.89,8.75-77.53,22.63-100.87,33.2c-18.38,8.32-33.04,23.1-41.21,41.55l-73.54,166.23
			c-2.89,6.53-12.64,4.47-12.64-2.67V44.27c0-17.34-19.73-27.29-33.66-16.98c-21.75,16.11-49.35,37.24-67.82,53.86
			c-10.29,9.26-16.14,22.47-16.14,36.31v320.89c0,14.85,6,29.04,16.6,39.44c13.63,13.38,35.75,31.71,66.78,47.1
			c15.76,7.81,34.24-3.73,34.24-21.32v-82.73c0-7.2,1.92-14.28,5.57-20.49l16.95-28.85c7.71-13.12,26.95-12.29,33.5,1.44
			l86.22,180.74c6.47,13.57,20.1,22.32,35.14,22.45c24.56,0.22,49.12-0.03,73.65-0.76c18.47-0.55,30.32-19.87,22.52-36.62
			l-145.8-313.01c-5.16-11.08-5.15-23.89,0.03-34.96l122.16-260.96C3394.39-84.73,3381.64-100.87,3365.88-97.58z"/>
		<path d="M3512.68,567.65c17.35-1.66,34.68-3.55,51.99-5.69c16.87-2.08,29.55-16.38,29.55-33.38l0-616.95
			c0-19.27-16.18-34.63-35.42-33.57c-19.45,1.07-36.89,2.37-52.18,3.73c-17.36,1.54-30.68,16.06-30.68,33.49v618.9
			C3475.93,553.97,3492.97,569.53,3512.68,567.65z"/>
		<path d="M3832.37,310.51c30.4-10.12,60.58-20.66,91.32-30.22c28.06-8.73,57.25-15.3,86.85-20.77c6.45-2.1,10.68-4.93,14.35-11.56
			c1.45-3.45,2.82-6.97,4.12-10.55c8.6-23.82-9.32-48.92-34.65-48.92h-47.76c-13.95,0-26.83,7.85-32.9,20.41
			c-3.64,7.54-8.1,14.05-13.39,19.55c-9.58,9.98-23.29,14.97-41.13,14.97c-20.49,0-36.02-7.27-46.59-21.84
			c-6.39-9.38-11.01-22.46-13.87-39.25c-2.87-16.78-4.29-45.94-4.29-87.49c0-31.21,0.71-54.86,2.15-70.94
			c1.43-16.08,3.42-28.05,5.94-35.91c2.53-7.86,5.9-14.61,10.08-20.24c4.84-6.34,11.29-11.5,19.32-15.49
			c8.05-3.99,17.14-5.99,27.27-5.99c18.28,0,32.1,4.99,41.46,14.97c5.12,5.46,9.46,11.91,13.03,19.36
			c6.06,12.65,18.96,20.6,32.99,20.6h47.86c25.52,0,43.15-25.35,34.5-49.36c-3.04-8.43-6.51-16.45-10.41-24.05
			c-3.19-6.23-6.6-12.13-10.22-17.71c-6.04-9.31-15.93-15.45-26.96-16.64c-82.89-8.94-158.89-13.78-226.23-16.03
			c-10.19-0.34-20.12,3.53-27.24,10.83c-0.99,1.02-1.98,2.05-2.96,3.1c-21.13,22.53-34.55,48.18-40.27,76.94
			c-5.72,28.76-8.58,65.19-8.58,109.32v34.5c0,44.13,2.87,80.51,8.58,109.15c5.72,28.63,19.14,54.22,40.27,76.75
			c8.01,8.64,16.46,16.31,25.36,23.01c9.69,7.29,22.32,9.41,33.82,5.58c7.61-2.54,15.22-5.07,22.83-7.61"/>
		<path d="M4103.01-72.25v298.66c0,10.82,9.15,19.38,19.95,18.67c12.23-0.81,24.53-1.36,36.88-1.62
			c14.74-0.31,29.43-0.23,44.08,0.18c9.14,0.26,16.71-7.04,16.71-16.18V195.9c0-6.05,2.09-11.92,5.93-16.6l25.78-31.5
			c4.13-5.05,12.12-4.04,14.87,1.88l42.93,92.39c2.9,6.25,8.83,10.56,15.67,11.4l92.93,11.41c15.87,1.95,27.47-14.61,20.23-28.86
			l-92.3-181.51c-3.87-7.61-2.61-16.83,3.16-23.12l83.23-90.72c8.6-9.37,1.96-24.5-10.77-24.5c-27.23,0-60.53-0.04-95.09-0.16
			c-10.03-0.03-19.61,4.18-26.35,11.6l-80.21,88.19v-88.17c0-6.83-5.5-12.4-12.34-12.49c-5.39-0.07-10.64-0.14-15.73-0.22
			l-70.78-4.72C4111.62-90.49,4103.01-82.43,4103.01-72.25z"/>
		<g>
			<path d="M3650.99,429.52l21.38-6.25c2.62-0.76,5.43,0.19,7.05,2.39l57.39,78.14c2.66,3.63,0.91,8.8-3.41,10.06l-18.35,5.36
				c-2.76,0.81-5.72-0.3-7.28-2.72l-3.13-4.88c-1.55-2.42-4.52-3.53-7.28-2.72l-22.53,6.58c-2.72,0.79-4.61,3.26-4.67,6.1
				l-0.12,6.06c-0.06,2.83-1.94,5.3-4.67,6.1l-17.42,5.09c-4.33,1.27-8.6-2.17-8.29-6.67l6.66-96.85
				C3646.52,432.59,3648.38,430.28,3650.99,429.52z M3681.32,490.35c4.15-1.21,5.97-6.07,3.65-9.71l-13.3-20.88l-0.28,0.08
				l-0.49,24.77c-0.09,4.38,4.1,7.58,8.3,6.35L3681.32,490.35z"/>
			<path d="M3839.44,468.11l-23.88,10.91c-2.61,1.19-5.69,0.53-7.58-1.63l-62.56-71.56c-2.86-3.27-1.76-8.36,2.19-10.17l17-7.76
				c2.67-1.22,5.82-0.5,7.69,1.76l38.56,46.49l0.27-0.12l-10.14-59.45c-0.49-2.9,1.02-5.77,3.7-6.99l17.4-7.95
				c3.98-1.82,8.58,0.75,9.13,5.09l11.97,94.67C3843.53,464.21,3842.02,466.93,3839.44,468.11z"/>
			<path d="M3889.82,330.55l69.78-21.99c3.42-1.08,7.06,0.82,8.13,4.24l4.12,13.07c1.08,3.42-0.82,7.06-4.24,8.13l-39.2,12.36
				c-3.42,1.08-5.31,4.72-4.24,8.13l0,0c1.08,3.42,4.72,5.31,8.14,4.24l34.47-10.87c3.42-1.08,7.06,0.82,8.13,4.24l3.55,11.26
				c1.08,3.42-0.82,7.06-4.24,8.13l-34.47,10.87c-3.42,1.08-5.31,4.72-4.24,8.13l0,0c1.08,3.42,4.72,5.31,8.13,4.24l40.73-12.84
				c3.42-1.08,7.06,0.82,8.13,4.24l4.12,13.07c1.08,3.42-0.82,7.06-4.24,8.13l-71.3,22.48c-3.42,1.08-7.06-0.82-8.13-4.24
				l-27.38-86.87C3884.51,335.27,3886.4,331.63,3889.82,330.55z"/>
			<path d="M4048.77,290.66l22.37-1.94c2.37-0.21,4.66,0.9,5.97,2.88l32.89,49.63l0.29-0.03l-4.26-49.01
				c-0.31-3.57,2.33-6.71,5.9-7.02l17.28-1.5c3.57-0.31,6.71,2.33,7.02,5.9l7.88,90.75c0.31,3.57-2.33,6.71-5.9,7.02l-20.83,1.81
				c-2.34,0.2-4.6-0.87-5.92-2.81l-34.58-50.73l-0.29,0.03l4.36,50.17c0.31,3.57-2.33,6.71-5.9,7.02l-17.28,1.5
				c-3.57,0.31-6.71-2.33-7.02-5.9l-7.89-90.75C4042.56,294.11,4045.2,290.97,4048.77,290.66z"/>
			<path d="M4298.94,363.48c-3.91,28.59-21.23,40.2-52.72,35.9c-31.48-4.3-45.2-20.15-41.3-48.75l7.76-56.83
				c0.48-3.55,3.75-6.03,7.3-5.55l18.92,2.59c3.55,0.48,6.03,3.75,5.55,7.3l-6.8,49.75c-1.44,10.54-3.24,23.68,12.22,25.79
				c15.02,2.05,16.82-11.09,18.26-21.63l6.8-49.75c0.48-3.55,3.75-6.03,7.3-5.55l18.92,2.59c3.55,0.48,6.03,3.75,5.55,7.3
				L4298.94,363.48z"/>
			<path d="M4375.58,311.22l72.15,12.17c3.53,0.6,5.91,3.94,5.32,7.47l-2.28,13.51c-0.6,3.53-3.94,5.91-7.47,5.32l-40.53-6.84
				c-3.53-0.6-6.88,1.78-7.47,5.32l0,0c-0.6,3.53,1.78,6.88,5.32,7.47l35.65,6.01c3.53,0.6,5.91,3.94,5.32,7.47l-1.96,11.64
				c-0.6,3.53-3.94,5.91-7.47,5.32l-35.65-6.01c-3.53-0.6-6.88,1.78-7.47,5.32l0,0c-0.6,3.53,1.78,6.88,5.32,7.47l42.11,7.1
				c3.53,0.6,5.91,3.94,5.32,7.47l-2.28,13.51c-0.6,3.53-3.94,5.91-7.47,5.32l-73.73-12.44c-3.53-0.6-5.91-3.94-5.32-7.47
				l15.15-89.83C4368.7,313.01,4372.05,310.63,4375.58,311.22z"/>
		</g>
		<path d="M4468.92,428.31c-2.21,4.67,0.45,10.19,5.48,11.37l0,0c2.75,0.52,5.25,0.98,7.47,1.38c1.69,0.3,3.38,0.58,5.07,0.85
			c0.55,0.09,1.1,0.17,1.65,0.25c1.15,0.18,2.3,0.35,3.45,0.51c0.65,0.09,1.3,0.18,1.94,0.26c1.06,0.14,2.13,0.28,3.2,0.41
			c0.67,0.08,1.34,0.16,2.01,0.24c1.06,0.12,2.13,0.24,3.19,0.35c0.66,0.07,1.31,0.14,1.97,0.21c0.83,0.08,1.66,0.16,2.49,0.23
			c86.23,9.95,275.82,12.67,298.25-150.86c-0.29-0.27-0.58-0.51-0.88-0.77c1.47-10.25,1.09-20.78-1.16-31.06
			c-5.62-25.67-14.69-47.5-27.26-65.48c-20.93-30.42-52.54-50.19-94.82-59.35l-58.14-11.77c-14.54-2.94-25.56-9.97-33.04-21.09
			c-6.39-9.47-9.58-20.59-9.58-33.35v0c0-20.75,15.31-38.42,35.88-41.15c47.76-6.34,70.42,22.82,82.45,38.77
			c3.85,5.11,11.56,4.91,15.14-0.39l16.16-21.32c0.01,0.02,0.03,0.04,0.04,0.06l13.61-20.21c6.02-8.94,3.8-21.05-5-27.27l-9.08-6.42
			c-66.72-48.06-141.57-62.63-186.86-66.89c-24.01-2.26-46.59,11.75-55.34,34.22v0c-14.21,34.17-21.31,73-21.31,116.47
			c-0.08,1.97-0.06,4.33,0.05,6.99c0.13,8.83,0.46,16.21,0.93,22.59c1.95,26.48,10.7,52.11,26.17,73.69
			c0.57,0.79,1.14,1.57,1.71,2.33c23.88,31.9,58.27,44.56,100.99,53.4l39.1,8.65l0,0l0,0l8.85,1.96c0.64,0.13,1.29,0.25,1.96,0.37
			c0.01,0,0.01,0,0.02,0c14.97,4.07,40.38,14.36,42.3,37.65c0.02,0.37,0.03,0.73,0.05,1.09c0.03,0.69,0.07,1.38,0.06,2.09
			c0.58,78.43-120.88,49.6-158.41,38.82c-6.18-1.78-12.73,1.18-15.49,6.99L4468.92,428.31z"/>
	</g>
	
		<text transform="matrix(1 0 0 1 3818.6289 158.6863)" class="st0" style="font-family:'Fearless_YandiDesigns'; font-size:139.352px;">Vitant</text>
</g>
<text transform="matrix(0.9483 0 0 1 3020 750.0718)" style="font-family:'HelveticaNeue-BoldItalic'; font-size:128.3332px;">Stylize your walk, step by step.</text>
<g>
	<g>
		<g>
			<path d="M6385.88-97.58c-41.89,8.75-77.53,22.63-100.87,33.2c-18.38,8.32-33.04,23.1-41.21,41.55l-73.54,166.23
				c-2.89,6.53-12.64,4.47-12.64-2.67V44.27c0-17.34-19.73-27.29-33.66-16.98c-21.76,16.11-49.35,37.24-67.82,53.86
				c-10.29,9.26-16.14,22.47-16.14,36.31v320.89c0,14.85,6,29.04,16.6,39.44c13.63,13.38,35.75,31.71,66.78,47.1
				c15.76,7.81,34.24-3.73,34.24-21.32v-82.73c0-7.2,1.92-14.28,5.57-20.49l16.95-28.85c7.71-13.12,26.95-12.29,33.5,1.44
				l86.22,180.74c6.47,13.57,20.1,22.32,35.14,22.45c24.56,0.22,49.12-0.03,73.65-0.76c18.47-0.55,30.32-19.87,22.52-36.62
				l-145.8-313.01c-5.16-11.08-5.15-23.89,0.03-34.96l122.16-260.96C6414.39-84.73,6401.64-100.87,6385.88-97.58z"/>
			<path d="M6532.68,567.65c17.35-1.66,34.68-3.55,51.99-5.69c16.87-2.08,29.55-16.38,29.55-33.38V-88.38
				c0-19.27-16.18-34.63-35.42-33.57c-19.45,1.07-36.89,2.37-52.18,3.73c-17.36,1.54-30.68,16.06-30.68,33.49v618.9
				C6495.93,553.97,6512.97,569.53,6532.68,567.65z"/>
			<path d="M6852.37,310.51c30.4-10.12,60.58-20.66,91.32-30.22c28.06-8.73,57.25-15.3,86.85-20.77c6.45-2.1,10.68-4.93,14.35-11.56
				c1.45-3.45,2.82-6.97,4.12-10.55c8.6-23.82-9.32-48.92-34.65-48.92h-47.76c-13.95,0-26.83,7.85-32.9,20.41
				c-3.64,7.54-8.1,14.05-13.39,19.55c-9.58,9.98-23.29,14.97-41.13,14.97c-20.49,0-36.02-7.27-46.59-21.84
				c-6.39-9.38-11.01-22.46-13.88-39.25c-2.87-16.78-4.29-45.94-4.29-87.49c0-31.21,0.71-54.86,2.15-70.94
				c1.43-16.08,3.42-28.05,5.94-35.91c2.53-7.86,5.9-14.61,10.08-20.24c4.84-6.34,11.29-11.5,19.32-15.49
				c8.05-3.99,17.14-5.99,27.27-5.99c18.28,0,32.1,4.99,41.46,14.97c5.12,5.46,9.46,11.91,13.03,19.36
				c6.06,12.65,18.96,20.6,32.99,20.6h47.86c25.52,0,43.15-25.35,34.5-49.36c-3.04-8.43-6.51-16.45-10.41-24.05
				c-3.19-6.23-6.6-12.13-10.22-17.71c-6.04-9.31-15.93-15.45-26.96-16.64c-82.89-8.94-158.89-13.78-226.23-16.03
				c-10.19-0.34-20.12,3.53-27.24,10.83c-0.99,1.02-1.98,2.05-2.96,3.1c-21.13,22.53-34.55,48.18-40.27,76.94
				c-5.72,28.76-8.58,65.19-8.58,109.32v34.5c0,44.13,2.87,80.51,8.58,109.15c5.72,28.63,19.14,54.22,40.27,76.75
				c8.01,8.64,16.46,16.31,25.36,23.01c9.69,7.29,22.32,9.41,33.82,5.58c7.61-2.54,15.22-5.07,22.83-7.61"/>
			<path d="M7123.01-72.25v298.66c0,10.82,9.15,19.38,19.95,18.67c12.23-0.81,24.53-1.36,36.88-1.62
				c14.74-0.31,29.43-0.23,44.08,0.18c9.14,0.26,16.71-7.04,16.71-16.18V195.9c0-6.05,2.09-11.92,5.93-16.6l25.78-31.5
				c4.13-5.05,12.12-4.04,14.87,1.88l42.93,92.39c2.9,6.25,8.83,10.56,15.67,11.4l92.93,11.41c15.87,1.95,27.47-14.61,20.23-28.86
				l-92.3-181.51c-3.87-7.61-2.61-16.83,3.16-23.12l83.23-90.72c8.6-9.37,1.96-24.5-10.77-24.5c-27.23,0-60.53-0.04-95.09-0.16
				c-10.03-0.03-19.61,4.18-26.35,11.6l-80.21,88.19v-88.17c0-6.83-5.5-12.4-12.34-12.49c-5.39-0.07-10.64-0.14-15.73-0.22
				l-70.78-4.72C7131.62-90.49,7123.01-82.43,7123.01-72.25z"/>
			<g>
				<path d="M6670.99,429.52l21.38-6.25c2.62-0.76,5.43,0.19,7.05,2.39l57.39,78.14c2.66,3.63,0.91,8.8-3.41,10.06l-18.35,5.36
					c-2.76,0.81-5.72-0.3-7.28-2.72l-3.13-4.88c-1.55-2.42-4.52-3.53-7.28-2.72l-22.53,6.58c-2.72,0.79-4.61,3.26-4.67,6.1
					l-0.12,6.06c-0.06,2.83-1.94,5.3-4.67,6.1l-17.42,5.09c-4.33,1.27-8.6-2.17-8.29-6.67l6.66-96.85
					C6666.52,432.59,6668.38,430.28,6670.99,429.52z M6701.32,490.35c4.15-1.21,5.97-6.07,3.65-9.71l-13.3-20.88l-0.28,0.08
					l-0.49,24.77c-0.09,4.38,4.1,7.58,8.3,6.35L6701.32,490.35z"/>
				<path d="M6859.44,468.11l-23.88,10.91c-2.61,1.19-5.69,0.53-7.58-1.63l-62.56-71.56c-2.86-3.27-1.76-8.36,2.19-10.17l17-7.76
					c2.67-1.22,5.82-0.5,7.69,1.76l38.56,46.49l0.27-0.12l-10.14-59.45c-0.49-2.9,1.02-5.77,3.7-6.99l17.4-7.95
					c3.98-1.82,8.58,0.75,9.13,5.09l11.97,94.67C6863.53,464.21,6862.02,466.93,6859.44,468.11z"/>
				<path d="M6909.82,330.55l69.78-21.99c3.42-1.08,7.06,0.82,8.13,4.24l4.12,13.07c1.08,3.42-0.82,7.06-4.24,8.13l-39.2,12.36
					c-3.42,1.08-5.31,4.72-4.24,8.13l0,0c1.08,3.42,4.72,5.31,8.13,4.24l34.47-10.87c3.42-1.08,7.06,0.82,8.13,4.24l3.55,11.26
					c1.08,3.42-0.82,7.06-4.24,8.13l-34.47,10.87c-3.42,1.08-5.31,4.72-4.24,8.13l0,0c1.08,3.42,4.72,5.31,8.13,4.24l40.73-12.84
					c3.42-1.08,7.06,0.82,8.13,4.24l4.12,13.07c1.08,3.42-0.82,7.06-4.24,8.13l-71.3,22.48c-3.42,1.08-7.06-0.82-8.13-4.24
					l-27.38-86.87C6904.51,335.27,6906.4,331.63,6909.82,330.55z"/>
				<path d="M7068.77,290.66l22.37-1.94c2.37-0.21,4.65,0.9,5.97,2.88l32.89,49.63l0.29-0.03l-4.26-49.01
					c-0.31-3.57,2.33-6.71,5.9-7.02l17.28-1.5c3.57-0.31,6.71,2.33,7.02,5.9l7.88,90.75c0.31,3.57-2.33,6.71-5.9,7.02l-20.83,1.81
					c-2.34,0.2-4.6-0.87-5.92-2.81l-34.58-50.73l-0.29,0.03l4.36,50.17c0.31,3.57-2.33,6.71-5.9,7.02l-17.28,1.5
					c-3.57,0.31-6.71-2.33-7.02-5.9l-7.89-90.75C7062.56,294.11,7065.2,290.97,7068.77,290.66z"/>
				<path d="M7318.94,363.48c-3.91,28.59-21.23,40.2-52.72,35.9c-31.48-4.3-45.2-20.15-41.3-48.75l7.76-56.83
					c0.48-3.55,3.75-6.03,7.3-5.55l18.92,2.59c3.55,0.48,6.03,3.75,5.55,7.3l-6.8,49.75c-1.44,10.54-3.24,23.68,12.22,25.79
					c15.02,2.05,16.82-11.09,18.26-21.63l6.8-49.75c0.48-3.55,3.75-6.03,7.3-5.55l18.92,2.59c3.55,0.48,6.03,3.75,5.55,7.3
					L7318.94,363.48z"/>
				<path d="M7395.58,311.22l72.15,12.17c3.53,0.6,5.91,3.94,5.32,7.47l-2.28,13.51c-0.6,3.53-3.94,5.91-7.47,5.32l-40.53-6.84
					c-3.53-0.6-6.88,1.78-7.47,5.32l0,0c-0.6,3.53,1.78,6.88,5.32,7.47l35.65,6.01c3.53,0.6,5.91,3.94,5.32,7.47l-1.96,11.64
					c-0.6,3.53-3.94,5.91-7.47,5.32l-35.65-6.01c-3.53-0.6-6.88,1.78-7.47,5.32l0,0c-0.6,3.53,1.78,6.88,5.32,7.47l42.11,7.1
					c3.53,0.6,5.91,3.94,5.32,7.47l-2.28,13.51c-0.6,3.53-3.94,5.91-7.47,5.32l-73.73-12.44c-3.53-0.6-5.91-3.94-5.32-7.47
					l15.15-89.83C7388.7,313.01,7392.05,310.63,7395.58,311.22z"/>
			</g>
			<path d="M7488.92,428.31c-2.21,4.67,0.45,10.19,5.48,11.37l0,0c2.75,0.52,5.25,0.98,7.47,1.38c1.69,0.3,3.38,0.58,5.07,0.85
				c0.55,0.09,1.1,0.17,1.65,0.25c1.15,0.18,2.3,0.35,3.45,0.51c0.65,0.09,1.3,0.18,1.94,0.26c1.06,0.14,2.13,0.28,3.2,0.41
				c0.67,0.08,1.34,0.16,2.01,0.24c1.06,0.12,2.13,0.24,3.19,0.35c0.66,0.07,1.31,0.14,1.97,0.21c0.83,0.08,1.66,0.16,2.49,0.23
				c86.23,9.95,275.82,12.67,298.25-150.86c-0.29-0.27-0.58-0.51-0.88-0.77c1.47-10.25,1.09-20.78-1.16-31.06
				c-5.62-25.67-14.69-47.5-27.26-65.48c-20.93-30.42-52.54-50.19-94.82-59.35l-58.14-11.77c-14.54-2.94-25.56-9.97-33.04-21.09
				c-6.39-9.47-9.58-20.59-9.58-33.35v0c0-20.75,15.31-38.42,35.88-41.15c47.76-6.34,70.42,22.82,82.45,38.77
				c3.85,5.11,11.56,4.91,15.14-0.39l16.16-21.32c0.01,0.02,0.03,0.04,0.04,0.06l13.61-20.21c6.02-8.94,3.8-21.05-5-27.27
				l-9.08-6.42c-66.72-48.06-141.57-62.63-186.86-66.89c-24.01-2.26-46.59,11.75-55.34,34.22v0c-14.21,34.17-21.31,73-21.31,116.47
				c-0.08,1.97-0.06,4.33,0.05,6.99c0.13,8.83,0.46,16.21,0.93,22.59c1.95,26.48,10.7,52.11,26.17,73.69
				c0.57,0.79,1.14,1.57,1.71,2.33c23.88,31.9,58.27,44.56,100.99,53.4l39.1,8.65l0,0l0,0l8.85,1.96c0.64,0.13,1.29,0.25,1.96,0.37
				c0.01,0,0.01,0,0.02,0c14.97,4.07,40.38,14.36,42.3,37.65c0.02,0.37,0.03,0.73,0.05,1.09c0.03,0.69,0.07,1.38,0.06,2.09
				c0.58,78.43-120.88,49.6-158.41,38.82c-6.18-1.78-12.73,1.18-15.49,6.99L7488.92,428.31z"/>
		</g>
		
			<text transform="matrix(1 0 0 1 6838.6289 158.6863)" class="st0" style="font-family:'Fearless_YandiDesigns'; font-size:139.352px;">Vitant</text>
	</g>
	<text transform="matrix(0.9483 0 0 1 6040 753.9575)" style="font-family:'HelveticaNeue-BoldItalic'; font-size:149.0047px;">Shoose for your own style.</text>
</g>
</svg>
